<svg width="22" height="22" viewBox="0 0 22 22" fill="none" xmlns="http://www.w3.org/2000/svg">
<path d="M5.76 4.90035L3.96 3.17366L2.55 4.53379L4.34 6.26047L5.76 4.90035ZM3 10.3602H0V12.2894H3V10.3602ZM12 0.762085H10V3.60774H12V0.762085ZM19.45 4.53379L18.04 3.17366L16.25 4.90035L17.66 6.26047L19.45 4.53379ZM16.24 17.7492L18.03 19.4855L19.44 18.1254L17.64 16.3987L16.24 17.7492ZM19 10.3602V12.2894H22V10.3602H19ZM11 5.537C7.69 5.537 5 8.13186 5 11.3248C5 14.5177 7.69 17.1126 11 17.1126C14.31 17.1126 17 14.5177 17 11.3248C17 8.13186 14.31 5.537 11 5.537ZM10 21.8875H12V19.0418H10V21.8875ZM2.55 18.1158L3.96 19.4759L5.75 17.7396L4.34 16.3794L2.55 18.1158Z" fill="white"/>
</svg>
