<svg width="200" height="200" viewBox="0 0 200 200" fill="none" xmlns="http://www.w3.org/2000/svg">
<path d="M0 100C0 44.7715 44.7715 0 100 0V0C155.228 0 200 44.7715 200 100V100C200 155.228 155.228 200 100 200V200C44.7715 200 0 155.228 0 100V100Z" fill="#7EDA8B"/>
<path fill-rule="evenodd" clip-rule="evenodd" d="M157.143 140.476V145.714C157.143 151.905 151.905 157.143 145.714 157.143H54.2858C48.0953 157.143 42.8572 151.905 42.8572 145.714V140.476C42.8572 126.666 59.0477 118.095 74.2858 111.428L75.7143 110.714C76.9048 110.238 78.0953 110.238 79.2858 110.952C85.4762 115 92.381 117.143 99.7619 117.143C107.143 117.143 114.286 114.762 120.238 110.952C121.429 110.238 122.619 110.238 123.81 110.714L125.238 111.428C140.952 118.095 157.143 126.428 157.143 140.476V140.476ZM100 42.8569C115.714 42.8569 128.333 56.9046 128.333 74.2855C128.333 91.6665 115.714 105.714 100 105.714C84.2858 105.714 71.6667 91.6665 71.6667 74.2855C71.6667 56.9046 84.2858 42.8569 100 42.8569Z" fill="white"/>
</svg>
