<svg width="100" height="100" viewBox="0 0 100 100" fill="none" xmlns="http://www.w3.org/2000/svg">
<path d="M0 50C0 22.3858 22.3858 0 50 0V0C77.6142 0 100 22.3858 100 50V50C100 77.6142 77.6142 100 50 100V100C22.3858 100 0 77.6142 0 50V50Z" fill="#7EDA8B"/>
<path fill-rule="evenodd" clip-rule="evenodd" d="M78.5716 70.2381V72.8571C78.5716 75.9524 75.9525 78.5714 72.8573 78.5714H27.143C24.0478 78.5714 21.4287 75.9524 21.4287 72.8571V70.2381C21.4287 63.3333 29.5239 59.0476 37.143 55.7143L37.8573 55.3571C38.4525 55.1191 39.0478 55.1191 39.643 55.4762C42.7382 57.5 46.1906 58.5714 49.8811 58.5714C53.5716 58.5714 57.143 57.381 60.1192 55.4762C60.7144 55.1191 61.3097 55.1191 61.9049 55.3571L62.6192 55.7143C70.4763 59.0476 78.5716 63.2143 78.5716 70.2381V70.2381ZM50.0001 21.4286C57.8573 21.4286 64.1668 28.4524 64.1668 37.1429C64.1668 45.8333 57.8573 52.8571 50.0001 52.8571C42.143 52.8571 35.8335 45.8333 35.8335 37.1429C35.8335 28.4524 42.143 21.4286 50.0001 21.4286Z" fill="white"/>
</svg>
