<svg width="5" height="20" viewBox="0 0 5 20" fill="none" xmlns="http://www.w3.org/2000/svg">
<path d="M2.4768 5.33341C3.62474 5.33341 4.56396 4.28341 4.56396 3.00008C4.56396 1.71675 3.62474 0.666748 2.4768 0.666748C1.32887 0.666748 0.389648 1.71675 0.389648 3.00008C0.389648 4.28341 1.32887 5.33341 2.4768 5.33341ZM2.4768 7.66675C1.32887 7.66675 0.389648 8.71675 0.389648 10.0001C0.389648 11.2834 1.32887 12.3334 2.4768 12.3334C3.62474 12.3334 4.56396 11.2834 4.56396 10.0001C4.56396 8.71675 3.62474 7.66675 2.4768 7.66675ZM2.4768 14.6667C1.32887 14.6667 0.389648 15.7167 0.389648 17.0001C0.389648 18.2834 1.32887 19.3334 2.4768 19.3334C3.62474 19.3334 4.56396 18.2834 4.56396 17.0001C4.56396 15.7167 3.62474 14.6667 2.4768 14.6667Z" fill="#666666"/>
</svg>
