<svg width="100" height="100" viewBox="0 0 100 100" fill="none" xmlns="http://www.w3.org/2000/svg">
<path d="M0 50C0 22.3858 22.3858 0 50 0V0C77.6142 0 100 22.3858 100 50V50C100 77.6142 77.6142 100 50 100V100C22.3858 100 0 77.6142 0 50V50Z" fill="#34BECD"/>
<path fill-rule="evenodd" clip-rule="evenodd" d="M78.5713 70.2382V72.8573C78.5713 75.9525 75.9523 78.5716 72.857 78.5716H27.1428C24.0475 78.5716 21.4285 75.9525 21.4285 72.8573V70.2382C21.4285 63.3335 29.5237 59.0478 37.1428 55.7144L37.857 55.3573C38.4523 55.1192 39.0475 55.1192 39.6428 55.4763C42.738 57.5001 46.1904 58.5716 49.8808 58.5716C53.5713 58.5716 57.1428 57.3811 60.1189 55.4763C60.7142 55.1192 61.3094 55.1192 61.9047 55.3573L62.6189 55.7144C70.4761 59.0478 78.5713 63.2144 78.5713 70.2382V70.2382ZM49.9999 21.4287C57.857 21.4287 64.1666 28.4525 64.1666 37.143C64.1666 45.8335 57.857 52.8573 49.9999 52.8573C42.1428 52.8573 35.8332 45.8335 35.8332 37.143C35.8332 28.4525 42.1428 21.4287 49.9999 21.4287Z" fill="white"/>
</svg>
