<svg width="24" height="25" viewBox="0 0 24 25" fill="none" xmlns="http://www.w3.org/2000/svg">
<path d="M19 3.12496H18V1.04163H16V3.12496H8V1.04163H6V3.12496H5C3.89 3.12496 3 4.06246 3 5.20829V19.7916C3 20.9375 3.89 21.875 5 21.875H19C20.1 21.875 21 20.9375 21 19.7916V5.20829C21 4.06246 20.1 3.12496 19 3.12496ZM12 6.24996C13.66 6.24996 15 7.64579 15 9.37496C15 11.1041 13.66 12.5 12 12.5C10.34 12.5 9 11.1041 9 9.37496C9 7.64579 10.34 6.24996 12 6.24996ZM18 18.75H6V17.7083C6 15.625 10 14.4791 12 14.4791C14 14.4791 18 15.625 18 17.7083V18.75Z" fill="#666666"/>
</svg>
