<svg width="26" height="28" viewBox="0 0 26 28" fill="none" xmlns="http://www.w3.org/2000/svg">
<g clip-path="url(#clip0_310_970)">
<path d="M13.142 12.6203C12.4884 12.6203 11.9634 13.1838 11.9634 13.8853C11.9634 14.5868 12.4884 15.1503 13.142 15.1503C13.7956 15.1503 14.3206 14.5868 14.3206 13.8853C14.3206 13.1838 13.7956 12.6203 13.142 12.6203ZM13.142 2.38525C7.22773 2.38525 2.42773 7.53725 2.42773 13.8853C2.42773 20.2333 7.22773 25.3853 13.142 25.3853C19.0563 25.3853 23.8563 20.2333 23.8563 13.8853C23.8563 7.53725 19.0563 2.38525 13.142 2.38525ZM15.4884 16.4038L6.71345 20.7853L10.7956 11.3668L19.5706 6.98525L15.4884 16.4038Z" fill="#666666"/>
</g>
<defs>
<clipPath id="clip0_310_970">
<rect x="0.285156" y="0.0854492" width="25.7143" height="27.6" rx="4" fill="white"/>
</clipPath>
</defs>
</svg>
