<svg width="25" height="22" viewBox="0 0 25 22" fill="none" xmlns="http://www.w3.org/2000/svg">
<g clip-path="url(#clip0_856_667)">
<path d="M12.2809 4.55471C13.2593 2.48208 15.4945 1.03388 18.0942 1.03388C21.5963 1.03388 24.1185 3.71145 24.4356 6.90251C24.4356 6.90251 24.6067 7.69465 24.23 9.12075C23.717 11.0629 22.5112 12.7885 20.8855 14.1054L12.2809 20.9668L3.82127 14.1049C2.19557 12.7885 0.989756 11.0625 0.476787 9.12032C0.100059 7.69422 0.271211 6.90208 0.271211 6.90208C0.588302 3.71101 3.11048 1.03345 6.61254 1.03345C9.21279 1.03345 11.3025 2.48208 12.2809 4.55471Z" fill="#CCCCCC"/>
</g>
<defs>
<clipPath id="clip0_856_667">
<rect x="0.232422" y="0.166748" width="24.2424" height="21.6667" rx="10.8333" fill="white"/>
</clipPath>
</defs>
</svg>
