<svg width="27" height="26" viewBox="0 0 27 26" fill="none" xmlns="http://www.w3.org/2000/svg">
<g clip-path="url(#clip0_310_945)">
<path d="M13.2294 5.58803C14.2777 3.2045 16.6725 1.53907 19.458 1.53907C23.2102 1.53907 25.9125 4.61827 26.2523 8.288C26.2523 8.288 26.4356 9.19896 26.032 10.839C25.4824 13.0725 24.1904 15.0569 22.4486 16.5713L13.2294 24.4619L4.16551 16.5708C2.42369 15.0569 1.13174 13.072 0.582132 10.8385C0.178495 9.19846 0.361872 8.2875 0.361872 8.2875C0.701612 4.61778 3.40395 1.53857 7.15616 1.53857C9.94213 1.53857 12.1811 3.2045 13.2294 5.58803Z" fill="#F8593B"/>
</g>
<defs>
<clipPath id="clip0_310_945">
<rect x="0.320312" y="0.541992" width="25.974" height="24.9167" rx="12.4583" fill="white"/>
</clipPath>
</defs>
</svg>
